<svg width="512" height="512" viewBox="0 0 512 512" xmlns="http://www.w3.org/2000/svg">
  <defs>
    <linearGradient id="flameGrad" x1="0%" y1="100%" x2="0%" y2="0%">
      <stop offset="0%" style="stop-color:#ea580c;stop-opacity:1" />
      <stop offset="100%" style="stop-color:#fb923c;stop-opacity:1" />
    </linearGradient>
  </defs>
  <rect width="512" height="512" rx="96" fill="#1a1a2e"/>
  <g transform="translate(128, 64) scale(1.0)">
    <path d="M128 0C128 0 96 64 96 128C96 160 112 192 128 208C144 192 160 160 160 128C160 64 128 0 128 0Z
             M128 48C136 80 144 112 144 128C144 144 140 160 128 176C116 160 112 144 112 128C112 112 120 80 128 48Z" 
          fill="url(#flameGrad)" transform="translate(0, 32) scale(2)"/>
    <text x="128" y="360" font-family="Arial Black, Arial, sans-serif" font-size="100" font-weight="900" 
          fill="#ffffff" text-anchor="middle">FF</text>
  </g>
</svg>
